<?xml version="1.0" standalone="no"?>
<!DOCTYPE svg PUBLIC "-//W3C//DTD SVG 20010904//EN"
 "http://www.w3.org/TR/2001/REC-SVG-20010904/DTD/svg10.dtd">
<svg version="1.0" xmlns="http://www.w3.org/2000/svg"
 width="189.000000pt" height="267.000000pt" viewBox="0 0 189.000000 267.000000"
 preserveAspectRatio="xMidYMid meet">

<g transform="translate(0.000000,267.000000) scale(0.100000,-0.100000)"
fill="#000000" stroke="none">
<path d="M1 2431 c1 -198 4 -238 15 -234 8 3 14 1 14 -5 0 -5 -8 -13 -17 -16
-12 -5 -14 -9 -5 -18 14 -14 16 -32 4 -24 -5 3 -8 -13 -8 -35 0 -33 3 -39 17
-36 12 3 16 0 12 -9 -4 -10 2 -13 17 -12 13 2 24 -3 26 -10 1 -7 0 -8 -3 -2
-9 18 -25 11 -20 -10 3 -10 1 -20 -4 -22 -5 -2 -6 -13 -3 -25 4 -13 10 -21 14
-18 5 3 6 -5 2 -17 l-5 -22 -8 22 c-5 12 -13 22 -18 22 -5 0 -9 13 -9 30 1 16
5 27 9 24 5 -3 6 2 3 10 -3 9 -12 16 -20 16 -18 0 -16 -1361 3 -1367 8 -3 8
-11 -3 -31 -9 -19 -13 -66 -13 -165 0 -132 1 -138 21 -146 l22 -8 -22 -5 c-20
-6 -22 -12 -22 -88 0 -59 4 -86 15 -96 13 -14 15 -13 15 5 0 25 13 27 36 4 13
-14 15 -29 11 -80 l-5 -63 104 0 c86 0 104 3 104 15 0 8 5 14 11 13 6 -2 13
14 16 36 5 45 20 79 33 71 4 -3 10 0 12 6 3 9 10 8 28 -1 l25 -13 -22 -10
c-22 -9 -36 -41 -24 -52 6 -7 8 -13 10 -45 1 -18 8 -20 71 -20 l70 0 -2 30
c-2 25 -13 34 -13 9 0 -5 -4 -8 -10 -6 -5 1 -10 12 -9 24 0 21 -1 21 -18 6
-16 -15 -18 -14 -28 11 -22 60 -6 95 56 116 21 7 39 8 57 1 22 -8 27 -8 27 4
0 25 23 65 33 58 6 -3 7 -1 3 5 -11 18 31 52 63 52 53 0 113 -71 105 -123 -4
-26 -24 -48 -43 -45 -9 2 -15 -2 -14 -8 1 -7 -9 -14 -23 -17 -19 -3 -26 1 -30
19 -3 12 -13 25 -22 29 -14 5 -15 4 -4 -6 14 -15 16 -33 2 -24 -13 8 -13 2 1
-28 9 -19 7 -31 -6 -57 -22 -42 -11 -50 71 -50 l61 0 8 63 c4 34 8 70 8 79 1
9 3 15 6 13 2 -3 12 12 22 33 10 20 30 49 44 64 14 15 25 29 25 32 0 3 -16 2
-35 -1 -25 -4 -35 -2 -35 7 0 7 -9 21 -20 30 -13 11 -17 21 -10 25 5 3 10 19
10 34 0 46 22 57 77 36 25 -10 54 -25 64 -33 18 -16 18 -17 -1 -49 -11 -18
-18 -33 -17 -33 1 0 20 7 42 15 22 8 58 15 80 15 l40 2 -30 11 c-82 32 -126
95 -127 180 -1 79 34 133 110 172 32 15 35 15 53 -1 20 -18 27 -6 7 14 -9 9
-9 12 0 12 7 0 17 -11 22 -25 5 -14 12 -25 16 -25 3 0 4 6 1 14 -3 7 -1 18 4
23 6 6 4 14 -6 23 -8 7 -15 17 -15 22 0 6 7 4 17 -3 15 -13 16 -11 9 16 -10
45 -11 48 -26 75 -12 23 -12 24 3 12 14 -12 15 -11 7 18 -6 22 -5 32 3 36 8 3
11 19 9 44 -6 57 15 50 23 -7 3 -27 15 -65 25 -85 16 -30 17 -36 5 -32 -11 5
-13 2 -9 -10 3 -9 10 -13 15 -10 5 3 9 -7 9 -21 0 -14 7 -40 16 -56 8 -17 13
-37 10 -45 -3 -8 6 -30 19 -50 l25 -37 0 47 c0 26 3 45 8 42 4 -2 7 12 6 31
-1 19 2 49 7 65 15 54 -5 18 -23 -40 -14 -44 -17 -48 -12 -18 3 21 7 61 9 89
5 67 19 78 34 26 7 -22 14 -39 17 -37 2 3 -3 26 -12 52 -19 55 -12 75 7 22 7
-20 16 -36 21 -36 8 0 28 -65 28 -90 -1 -10 -10 -4 -26 15 -15 17 -23 25 -20
19 3 -7 8 -32 11 -55 6 -44 18 -97 36 -157 6 -18 13 -44 15 -59 3 -15 10 -31
16 -34 6 -4 4 -10 -6 -16 -10 -6 -18 -24 -19 -46 -3 -46 -15 -57 -33 -33 -18
26 -18 34 4 39 13 4 13 5 -4 6 -14 1 -26 12 -35 33 l-13 31 -9 -29 c-5 -16
-23 -46 -39 -67 -23 -30 -27 -41 -18 -52 7 -8 9 -24 5 -36 -7 -20 -4 -21 24
-17 31 5 32 4 30 -36 -1 -24 7 -60 20 -86 14 -30 21 -65 21 -107 0 -51 3 -63
16 -63 11 0 14 5 10 17 -19 48 -18 101 2 146 22 50 69 101 101 112 12 3 21 10
21 14 0 16 -13 20 -32 10 -16 -9 -19 -8 -16 3 3 7 18 13 34 13 24 1 29 5 30
25 0 14 4 40 8 58 5 21 4 38 -4 47 -6 8 -13 31 -15 52 -1 21 -7 56 -13 78 -6
22 -14 72 -17 110 -6 83 -14 125 -24 125 -9 0 -102 92 -98 96 6 6 57 -20 57
-28 0 -5 8 -8 18 -8 31 0 91 -49 112 -92 24 -49 24 -51 8 -42 -7 4 -4 -2 7
-14 11 -11 31 -34 44 -51 13 -17 27 -29 31 -26 5 3 11 -4 15 -14 3 -11 19 -31
36 -45 26 -22 27 -26 12 -34 -14 -9 -14 -10 6 -17 12 -3 33 -17 48 -31 14 -13
31 -24 38 -24 7 0 18 -7 25 -15 13 -16 35 -21 26 -6 -3 5 1 12 10 15 33 13 60
135 33 152 -8 4 -9 0 -4 -15 11 -34 -4 -45 -30 -21 -20 19 -23 19 -29 4 -4 -9
1 -27 9 -40 9 -13 13 -24 10 -24 -12 0 -56 80 -49 91 4 7 3 10 -3 6 -13 -8
-37 19 -29 32 4 5 -9 36 -28 68 -32 54 -41 87 -13 50 10 -15 16 -16 39 -5 l26
13 -25 50 -25 50 23 -21 c13 -11 38 -29 54 -39 l30 -18 -20 24 c-12 13 -22 37
-24 54 -5 52 -67 157 -118 201 -16 13 -31 24 -35 24 -4 0 -10 10 -13 21 -15
45 -101 106 -122 86 -3 -4 -20 1 -37 11 -17 9 -36 17 -43 17 -15 0 -54 36 -48
45 9 14 -74 60 -108 60 -44 0 -49 7 -29 38 11 16 13 27 6 29 -6 2 -28 12 -49
23 -21 11 -41 17 -46 15 -4 -3 -6 6 -4 20 1 14 -7 37 -18 52 -17 21 -22 44
-25 112 -5 108 19 174 70 196 l33 14 -40 1 c-94 1 -223 99 -272 207 -23 50
-25 64 -20 137 11 148 53 238 136 293 72 48 129 65 206 61 66 -3 67 -3 72 25
8 40 22 43 17 3 -4 -33 -2 -35 53 -62 32 -15 62 -28 68 -28 16 -2 84 -97 113
-158 15 -32 34 -58 42 -58 8 0 21 -4 28 -9 10 -6 9 -10 -7 -14 -12 -3 -19 -1
-15 4 3 5 -2 9 -11 9 -25 0 -14 -34 13 -38 12 -2 22 -8 22 -13 0 -5 10 -9 23
-9 16 0 18 3 8 9 -22 14 1 19 56 12 37 -5 54 -4 57 5 6 16 -3 24 -25 24 -10 0
-23 9 -29 20 -8 14 -8 20 0 20 7 0 7 6 0 21 -7 11 -9 23 -6 26 8 8 65 -17 74
-33 6 -10 11 -10 26 2 20 14 20 14 0 14 -12 0 -21 7 -21 15 0 11 11 15 39 15
24 0 37 4 33 10 -4 6 6 10 22 10 23 0 16 6 -35 30 -35 17 -65 30 -67 30 -2 0
-2 -9 0 -20 4 -18 2 -19 -28 -6 -18 7 -31 18 -30 23 1 6 -15 15 -37 22 -30 9
-37 15 -33 30 3 13 -2 20 -20 23 -14 3 -32 1 -41 -4 -21 -12 -43 1 -25 14 10
7 8 8 -7 3 -26 -7 -101 21 -101 38 0 7 15 12 39 11 25 0 38 4 38 13 0 18 22
16 64 -3 23 -12 43 -14 62 -9 l29 8 -25 7 c-20 7 -21 8 -5 9 11 0 27 -3 35 -9
19 -12 41 6 33 27 -5 12 -2 15 9 11 8 -4 15 -1 15 6 0 8 -9 11 -24 8 -18 -3
-23 0 -23 17 0 24 -8 26 -34 6 -10 -8 -24 -11 -30 -7 -6 3 -26 8 -44 9 -27 1
-32 -1 -28 -13 4 -11 -2 -10 -23 5 -16 12 -37 21 -48 20 -16 0 -16 -1 2 -9 12
-4 27 -16 35 -26 11 -13 1 -10 -36 10 -34 18 -59 26 -72 21 -34 -10 -15 -32
39 -46 51 -13 65 -29 26 -29 -12 0 -39 11 -58 25 -20 13 -41 21 -45 17 -5 -4
-6 -3 -2 2 5 5 0 15 -10 22 -20 14 -182 17 -182 3 0 -5 -5 -9 -11 -9 -5 0 -8
4 -5 8 3 5 -40 9 -94 10 l-100 2 -1 -38 0 -37 -12 35 c-11 33 -15 35 -58 38
l-47 3 -7 -51 c-5 -37 -3 -55 5 -63 10 -9 11 -9 6 0 -13 24 14 23 30 -2 9 -14
19 -23 22 -20 9 9 42 -27 42 -47 0 -10 -11 -29 -25 -41 -27 -24 -84 -113 -141
-221 -27 -51 -32 -67 -19 -62 12 4 18 0 22 -14 3 -11 9 -17 14 -14 5 3 6 -1 3
-9 -3 -8 4 -32 15 -53 12 -21 21 -48 21 -59 0 -11 9 -26 21 -33 12 -8 18 -19
15 -28 -3 -9 -1 -12 4 -9 6 3 10 -4 10 -16 0 -16 -3 -19 -13 -11 -10 8 -13 6
-14 -9 -1 -12 3 -17 9 -13 6 4 8 3 5 -3 -4 -6 -16 -13 -27 -16 -19 -5 -24 3
-23 40 1 7 -3 11 -7 8 -4 -3 -11 2 -14 11 -3 8 -10 13 -15 10 -5 -3 -11 3 -14
14 -4 16 -2 18 11 11 10 -5 22 -10 27 -11 6 -1 9 -6 7 -12 -1 -5 2 -7 8 -3 8
5 8 11 1 19 -6 7 -7 17 -3 22 4 4 0 3 -9 -4 -21 -15 -32 -3 -16 17 11 14 10
14 -5 2 -16 -12 -18 -11 -18 3 0 12 -9 17 -32 16 -59 -1 -69 2 -57 16 6 7 8
18 4 24 -4 7 -17 1 -34 -17 -27 -28 -71 -39 -71 -19 0 6 -4 5 -9 -3 -8 -12
-13 -12 -36 3 -14 9 -29 24 -32 32 -3 8 -12 14 -20 14 -8 0 -12 4 -8 9 3 5 -3
16 -12 23 -21 15 -47 68 -34 68 5 0 -2 22 -15 50 -28 58 -31 78 -9 60 24 -20
19 8 -10 59 -28 48 -31 65 -12 58 13 -5 67 23 67 34 0 4 -20 4 -44 2 -68 -8
-113 5 -156 43 -44 40 -63 86 -62 150 l1 44 -85 0 -85 0 2 -239z m1210 212
c13 -15 12 -15 -8 -4 -24 12 -29 21 -14 21 5 0 15 -7 22 -17z m-140 -10 c13
-16 12 -17 -3 -4 -10 7 -18 15 -18 17 0 8 8 3 21 -13z m254 -6 c25 -21 25 -23
7 -23 -11 0 -20 5 -19 11 1 5 -8 9 -20 8 -16 -2 -21 2 -17 12 8 21 18 19 49
-8z m-225 -64 c0 -11 -51 41 -62 62 -6 11 6 3 26 -18 20 -21 36 -41 36 -44z
m35 68 c-3 -6 4 -15 16 -21 11 -7 18 -14 15 -17 -8 -9 -47 28 -40 38 3 5 7 9
10 9 3 0 3 -4 -1 -9z m515 -7 c0 -8 -5 -12 -10 -9 -6 4 -8 11 -5 16 9 14 15
11 15 -7z m-312 -59 c-3 -3 -9 2 -12 12 -6 14 -5 15 5 6 7 -7 10 -15 7 -18z
m49 -62 c0 -17 0 -18 -27 19 l-23 31 25 -19 c14 -10 25 -24 25 -31z m51 -16
c-1 -2 4 -12 12 -23 14 -18 14 -18 -2 -5 -10 7 -18 20 -18 29 0 8 3 13 6 10 3
-4 4 -8 2 -11z m158 -8 c3 -5 -1 -9 -8 -9 -7 0 2 -10 20 -21 17 -12 32 -23 32
-25 0 -7 -51 22 -79 44 l-24 20 27 0 c14 0 29 -4 32 -9z m-56 -14 c7 -9 8 -15
2 -15 -5 0 -12 7 -16 15 -3 8 -4 15 -2 15 2 0 9 -7 16 -15z m-55 -25 c3 -5 1
-10 -4 -10 -6 0 -11 5 -11 10 0 6 2 10 4 10 3 0 8 -4 11 -10z m84 -45 c0 -5
-3 -4 -8 3 -4 8 -12 13 -17 12 -5 -1 -10 4 -12 12 -2 9 0 8 7 -2 9 -13 11 -12
12 5 l0 20 9 -20 c5 -11 9 -24 9 -30z m41 5 c8 -5 11 -10 5 -10 -5 0 -17 5
-25 10 -8 5 -10 10 -5 10 6 0 17 -5 25 -10z m35 -39 c-3 -6 -11 -9 -16 -5 -5
3 -16 0 -24 -6 -16 -14 -20 -3 -6 19 5 7 14 10 20 7 6 -4 11 -2 11 5 0 10 3
10 11 2 6 -6 8 -16 4 -22z m-65 -1 c0 -5 -4 -10 -10 -10 -5 0 -10 5 -10 10 0
6 5 10 10 10 6 0 10 -4 10 -10z m-1215 -29 c3 -5 2 -12 -3 -15 -5 -3 -9 1 -9
9 0 17 3 19 12 6z m1201 0 c-4 -5 0 -12 6 -14 8 -3 6 -6 -4 -6 -18 -1 -24 10
-11 22 9 10 15 8 9 -2z m80 -6 c-2 -7 1 -18 7 -24 18 -18 0 -13 -35 10 -18 12
-25 19 -15 15 9 -3 17 -2 17 3 0 4 7 8 15 8 9 0 14 -6 11 -12z m-38 -42 c-10
-2 -26 -2 -35 0 -10 3 -2 5 17 5 19 0 27 -2 18 -5z m-1348 -23 c0 -6 16 -20
36 -32 19 -11 40 -32 45 -46 12 -31 3 -41 -15 -17 -13 18 -13 17 -11 -8 2 -18
-1 -27 -11 -27 -12 0 -20 32 -15 62 0 4 -5 5 -12 2 -17 -6 -57 28 -57 49 0 14
13 24 33 26 4 1 7 -4 7 -9z m1375 -10 c3 -6 -4 -10 -17 -10 -18 0 -20 2 -8 10
19 12 18 12 25 0z m35 -4 c0 -3 -4 -8 -10 -11 -5 -3 -10 -1 -10 4 0 6 5 11 10
11 6 0 10 -2 10 -4z m-1653 -28 c-3 -8 -6 -5 -6 6 -1 11 2 17 5 13 3 -3 4 -12
1 -19z m121 -232 c-13 -7 -25 -8 -26 -4 -2 4 -9 6 -15 2 -7 -3 -4 1 6 9 10 8
27 13 38 10 19 -5 19 -6 -3 -17z m339 17 c-4 -3 -3 -11 3 -17 5 -7 5 -18 1
-25 -7 -10 -10 -9 -16 8 -3 11 -11 21 -16 21 -6 0 -7 5 -4 10 3 6 13 10 22 10
9 0 13 -3 10 -7z m258 -3 c-3 -5 -12 -10 -18 -10 -7 0 -6 4 3 10 19 12 23 12
15 0z m-702 -80 c-3 -11 -7 -20 -9 -20 -2 0 -4 9 -4 20 0 11 4 20 9 20 5 0 7
-9 4 -20z m444 -4 c-11 -8 -25 -12 -33 -9 -24 9 -15 19 19 21 29 2 31 1 14
-12z m225 -21 c-6 -34 -12 -32 -12 6 0 16 4 28 9 25 4 -3 6 -17 3 -31z m71 16
c-2 -6 2 -11 7 -11 6 0 10 -12 10 -26 0 -14 4 -23 9 -20 4 3 1 -9 -8 -27 -21
-44 -77 -91 -97 -83 -15 6 -15 8 1 26 10 11 21 18 25 15 4 -2 7 2 7 10 0 8 -5
11 -10 8 -5 -3 -8 0 -5 8 3 8 11 14 19 14 20 0 23 32 5 51 -18 18 -21 44 -5
44 5 0 7 -6 4 -12 -3 -7 0 -5 7 5 14 18 35 17 31 -2z m-178 -30 c0 -27 -4 -35
-22 -37 -17 -3 -21 0 -16 13 5 12 2 15 -10 10 -9 -3 -19 -2 -22 3 -4 6 0 10 7
10 9 0 9 3 -2 10 -12 8 -10 10 8 10 13 0 20 -4 17 -10 -3 -6 1 -7 9 -4 19 7
21 20 4 28 -7 3 -4 5 7 3 16 -2 20 -10 20 -36z m-439 8 c7 -12 -15 -31 -31
-26 -5 2 -11 11 -13 20 -4 19 32 24 44 6z m744 -11 c0 -5 -7 -8 -15 -4 -8 3
-15 2 -15 -3 0 -13 30 -35 37 -27 3 3 1 6 -7 6 -10 0 -10 3 0 15 13 16 35 10
24 -6 -3 -5 0 -8 6 -7 6 2 19 -7 27 -19 10 -15 11 -23 4 -23 -8 0 -6 -11 5
-32 24 -47 34 -87 23 -94 -5 -3 -7 -15 -3 -26 4 -14 2 -18 -5 -14 -7 4 -11 0
-11 -11 0 -11 -7 -28 -15 -39 -8 -10 -14 -23 -15 -29 0 -5 5 -3 11 5 9 12 10
12 5 -3 -3 -10 -6 -23 -6 -28 0 -6 -4 -7 -10 -4 -5 3 -7 0 -4 -9 3 -8 -3 -19
-15 -26 -14 -7 -21 -7 -21 0 0 5 -9 10 -19 10 -10 0 -22 7 -25 16 -3 8 -2 12
4 9 6 -3 10 -2 10 4 0 5 3 16 6 25 4 11 1 16 -10 16 -14 0 -14 2 2 18 11 12
20 14 24 8 4 -6 6 -1 5 11 0 12 -5 19 -9 17 -8 -5 -12 11 -9 30 1 5 -6 3 -16
-4 -28 -22 -29 -24 -12 -18 11 4 15 -1 15 -17 0 -13 -4 -21 -8 -19 -5 3 -6 10
-3 15 4 5 -1 9 -11 9 -14 0 -14 -3 -4 -15 10 -11 10 -19 2 -27 -6 -6 -9 -16
-8 -22 2 -6 1 -8 -1 -3 -3 4 -9 5 -14 2 -5 -4 -6 1 -3 9 4 11 0 16 -11 16 -9
0 -13 5 -10 10 3 6 1 10 -4 10 -6 0 -11 5 -11 11 0 8 5 7 15 -1 20 -17 28 -8
31 35 3 28 0 33 -14 29 -13 -5 -14 -4 -3 4 7 5 23 8 35 6 11 -2 15 -2 9 2 -7
3 -13 12 -13 20 0 9 5 12 11 9 5 -4 3 10 -6 31 -17 41 -14 54 9 34 21 -17 39
-8 42 21 1 13 0 18 -2 11 -3 -6 -10 -10 -15 -7 -5 4 -6 -2 -2 -11 4 -12 3 -15
-6 -10 -7 5 -10 14 -7 22 3 8 1 25 -4 39 -7 19 -6 26 8 34 18 10 32 6 32 -11z
m-65 -18 c-3 -5 -2 -18 3 -27 6 -13 2 -24 -15 -40 -13 -12 -23 -18 -23 -13 0
5 4 11 9 14 5 3 11 16 14 28 6 22 5 22 -8 4 -20 -27 -19 -11 1 19 15 23 33 37
19 15z m-267 -83 c2 -10 -2 -17 -8 -17 -7 0 -10 7 -7 14 4 10 1 13 -9 9 -7 -3
-14 -1 -14 5 0 17 35 6 38 -11z m265 -38 c-3 -11 -9 -21 -13 -24 -5 -3 -6 4
-3 15 6 24 -12 27 -26 3 -8 -14 -9 -13 -8 8 2 19 6 25 20 21 10 -2 17 1 17 9
0 12 2 12 9 0 5 -7 6 -22 4 -32z m-497 -4 c-11 -8 -24 -15 -30 -15 -5 0 -1 7
10 15 10 8 24 14 29 14 6 0 1 -6 -9 -14z m224 -6 c0 -6 -4 -7 -10 -4 -5 3 -10
11 -10 16 0 6 5 7 10 4 6 -3 10 -11 10 -16z m-13 -52 l-1 -34 -22 26 c-25 29
-23 41 2 20 16 -13 17 -12 12 9 -4 12 -2 20 2 17 4 -3 8 -20 7 -38z m187 8
c10 -19 22 -33 25 -30 4 2 7 -6 8 -18 0 -12 -1 -16 -4 -9 -7 18 -22 15 -21 -5
3 -32 -12 -74 -23 -67 -8 4 -7 9 2 15 12 7 12 9 0 9 -8 0 -11 3 -8 7 4 3 -1
11 -10 18 -10 8 -14 19 -10 30 6 15 10 15 25 4 15 -12 16 -12 5 2 -7 9 -9 20
-5 25 4 4 0 3 -9 -4 -18 -13 -49 -7 -49 10 0 6 7 5 15 -2 9 -7 19 -10 22 -6 4
4 1 11 -7 16 -10 7 -11 10 -2 10 6 0 12 7 12 15 0 25 14 17 34 -20z m-199 -65
c3 -18 2 -21 -7 -12 -6 6 -12 21 -13 32 -2 27 14 11 20 -20z m-335 -91 c0 -5
-7 -9 -15 -9 -8 0 -15 7 -15 15 0 9 6 12 15 9 8 -4 15 -10 15 -15z m443 -48
c3 -13 1 -18 -9 -14 -7 2 -10 11 -7 19 7 19 10 18 16 -5z m234 -28 c-11 -12
-16 -12 -22 -2 -5 7 -4 10 2 6 6 -4 14 3 18 16 4 15 8 18 12 9 3 -8 -1 -21
-10 -29z m-762 -2 c3 -6 -4 -15 -15 -21 -16 -8 -20 -8 -20 3 0 25 23 36 35 18z
m675 -23 c0 -19 -2 -20 -10 -8 -13 19 -13 30 0 30 6 0 10 -10 10 -22z m265
-34 c13 -8 26 -22 29 -30 3 -9 11 -12 17 -8 8 4 9 3 5 -4 -4 -7 -1 -12 6 -13
10 0 10 -2 1 -6 -9 -3 -8 -11 4 -31 15 -25 14 -25 -10 3 -15 17 -26 35 -27 41
0 6 -6 11 -12 12 -7 1 -25 4 -39 7 -18 5 -28 2 -32 -7 -4 -11 3 -14 24 -13 22
1 26 -1 19 -11 -8 -9 -6 -12 7 -10 14 1 17 -5 15 -31 -2 -20 1 -33 8 -33 7 0
9 8 4 23 -7 22 -6 22 15 3 11 -11 21 -28 21 -38 0 -11 5 -29 11 -40 9 -17 9
-20 -2 -16 -10 4 -14 -4 -15 -24 -1 -21 2 -26 9 -19 21 21 27 11 7 -11 -23
-25 -27 -46 -5 -28 19 16 28 9 19 -14 -4 -11 -13 -15 -26 -10 -13 4 -18 2 -14
-4 6 -11 -21 -25 -34 -17 -11 7 -19 55 -9 55 4 0 10 9 14 20 4 13 -3 32 -21
56 -17 22 -24 38 -17 42 6 4 12 22 15 41 l5 33 -18 -23 c-17 -22 -19 -23 -19
-4 0 17 -2 18 -10 5 -9 -13 -13 -12 -26 5 -10 12 -15 14 -12 5 2 -8 19 -22 38
-31 20 -10 29 -19 22 -23 -7 -4 -17 -4 -24 0 -7 4 -8 3 -4 -4 5 -8 -1 -12 -14
-12 -15 0 -20 5 -17 14 3 8 -1 20 -9 27 -13 11 -14 9 -8 -17 6 -27 5 -28 -8
-10 -14 17 -15 17 -32 1 -21 -21 -13 -33 9 -15 14 12 15 10 10 -13 -5 -18 -3
-27 5 -27 6 0 8 5 5 10 -3 6 -1 10 5 10 6 0 14 -8 17 -17 8 -22 43 -52 60 -53
7 0 10 7 6 16 -4 12 -2 15 8 12 18 -6 19 -44 0 -40 -9 2 -11 -3 -7 -14 5 -12
2 -15 -10 -10 -8 3 -20 6 -26 6 -6 0 -8 6 -5 14 4 10 0 12 -14 9 -32 -9 -22
-39 12 -35 3 1 12 -10 19 -23 7 -14 17 -25 22 -25 4 0 8 -7 8 -15 0 -8 5 -15
11 -15 5 0 8 4 5 9 -3 5 10 11 29 14 21 3 45 17 60 34 22 26 24 26 25 7 0 -29
-64 -101 -105 -115 -19 -7 -32 -15 -30 -18 2 -3 -29 -6 -68 -5 -85 1 -117 15
-174 77 -124 134 -44 364 137 397 41 7 102 -4 135 -26z m-875 0 c0 -17 -22
-14 -28 4 -2 7 3 12 12 12 9 0 16 -7 16 -16z m990 -35 c20 -15 42 -27 50 -27
35 2 48 -3 53 -23 4 -14 10 -18 19 -13 10 6 11 5 1 -7 -12 -15 -12 -16 89
-101 12 -10 24 -18 27 -18 10 -1 81 -67 81 -76 0 -4 8 -16 18 -27 16 -19 16
-20 -3 -9 -11 5 -31 22 -45 37 -21 23 -199 171 -289 240 l-26 20 18 -30 c17
-27 16 -27 -12 5 -16 19 -28 37 -25 39 2 2 -2 11 -9 19 -10 13 -9 14 3 7 8 -4
31 -21 50 -36z m-710 -51 c36 -13 67 -26 70 -29 3 -4 14 -8 25 -10 11 -3 29
-21 40 -41 19 -36 19 -38 1 -51 -18 -13 -18 -14 5 -36 40 -37 27 -150 -15
-124 -5 3 -6 1 -2 -6 4 -6 12 -9 17 -6 5 4 9 1 9 -4 0 -6 -7 -11 -16 -11 -8 0
-13 -3 -11 -7 10 -16 -13 -53 -42 -68 -24 -12 -31 -12 -31 -3 0 9 -3 9 -9 -1
-8 -13 -12 -13 -27 0 -16 13 -17 12 -11 -6 6 -18 5 -17 -13 3 l-19 23 -7 -25
c-6 -27 -18 -33 -29 -16 -4 6 -15 8 -24 5 -10 -3 -24 1 -30 9 -7 8 -18 13 -25
10 -14 -5 -54 30 -74 64 -9 16 -9 22 -1 22 8 0 6 7 -4 18 -19 21 -22 57 -7 67
6 3 10 13 10 21 0 8 -4 12 -10 9 -12 -7 -3 46 15 92 9 20 20 31 32 30 12 -1
17 4 15 16 -2 9 3 17 9 17 7 0 9 3 6 7 -14 13 16 33 42 28 14 -3 20 -2 13 1
-16 8 -5 24 16 24 9 0 46 -10 82 -22z m210 -69 c15 -28 5 -23 -15 7 -9 15 -12
23 -6 20 6 -4 16 -16 21 -27z m537 -86 c-2 -16 -4 -3 -4 27 0 30 2 43 4 28 2
-16 2 -40 0 -55z m-1006 31 c-5 -16 -10 -21 -10 -12 -1 18 10 51 15 45 2 -1
-1 -16 -5 -33z m1089 11 c0 -8 7 -15 15 -15 9 0 18 -6 21 -14 3 -8 12 -12 19
-10 17 7 45 -33 38 -55 -4 -12 -2 -13 4 -3 7 9 13 6 22 -14 6 -15 14 -24 17
-21 3 3 -2 20 -11 39 l-17 33 36 -39 c35 -39 48 -64 24 -50 -7 4 -8 3 -4 -5 4
-6 12 -9 17 -5 6 3 15 -8 22 -25 6 -17 16 -31 22 -31 5 0 4 -4 -3 -9 -10 -6 0
-18 38 -46 28 -20 49 -40 46 -43 -3 -2 -12 1 -21 8 -8 7 -15 9 -15 6 0 -4 -13
2 -29 13 -16 12 -38 21 -49 21 -12 0 -24 5 -28 11 -3 6 -22 18 -41 25 -28 12
-34 20 -33 42 3 42 1 54 -9 48 -5 -3 -12 4 -15 17 -7 21 -7 21 -15 2 -7 -17
-13 -11 -40 42 -32 64 -39 93 -21 93 6 0 10 -7 10 -15z m-593 -52 c-3 -10 -5
-4 -5 12 0 17 2 24 5 18 2 -7 2 -21 0 -30z m-502 -22 c3 -5 2 -12 -3 -15 -5
-3 -9 1 -9 9 0 17 3 19 12 6z m1002 -23 c-3 -8 -6 -5 -6 6 -1 11 2 17 5 13 3
-3 4 -12 1 -19z m-500 -45 c-3 -10 -5 -4 -5 12 0 17 2 24 5 18 2 -7 2 -21 0
-30z m488 17 c-3 -5 1 -20 9 -32 8 -13 17 -43 20 -68 6 -43 5 -42 -15 18 -12
38 -24 60 -30 56 -7 -4 -7 1 0 15 7 11 14 21 17 21 3 0 2 -4 -1 -10z m-975
-64 c0 -26 -6 -18 -14 19 -5 22 -4 26 4 15 5 -8 10 -24 10 -34z m459 -40 c-7
-14 -16 -26 -20 -26 -5 0 0 13 9 29 20 36 27 34 11 -3z m-377 -79 l23 -19 -24
14 c-14 8 -36 30 -49 49 l-24 34 25 -30 c15 -16 36 -38 49 -48z m815 51 c-3
-8 -6 -5 -6 6 -1 11 2 17 5 13 3 -3 4 -12 1 -19z m170 -30 c-2 -13 -4 -5 -4
17 -1 22 1 32 4 23 2 -10 2 -28 0 -40z m-187 27 c0 -8 4 -15 10 -15 5 0 7 -7
4 -15 -4 -8 -10 -13 -14 -10 -11 7 -19 55 -9 55 5 0 9 -7 9 -15z m309 -50 c0
-5 -4 -3 -9 5 -5 8 -9 22 -9 30 0 16 17 -16 18 -35z m-439 9 c6 -14 24 -31 40
-37 17 -6 30 -17 30 -24 0 -7 9 -17 20 -23 13 -7 20 -21 20 -38 -1 -29 0 -29
-39 27 -18 24 -31 18 -31 -15 0 -27 -43 -118 -61 -130 -6 -3 -28 -43 -49 -88
-28 -61 -52 -95 -97 -138 -33 -31 -73 -60 -89 -63 -16 -4 -46 -11 -67 -17 -53
-13 -143 7 -199 44 -90 61 -70 258 39 379 93 103 205 144 401 147 69 1 73 0
82 -24z m657 -43 c-1 -16 -6 -27 -12 -24 -5 3 1 -5 15 -16 14 -11 21 -21 17
-21 -5 0 -1 -7 7 -16 23 -23 79 -105 74 -109 -2 -2 -25 25 -51 61 -27 37 -57
68 -67 71 -15 4 -17 9 -10 23 5 9 6 20 3 24 -3 3 -1 6 5 6 7 0 12 7 12 15 0 8
2 15 5 15 2 0 3 -13 2 -29z m-113 -3 c-4 -7 -2 -8 5 -4 12 8 67 -21 58 -30 -9
-9 -77 27 -77 42 0 8 5 12 10 9 6 -4 7 -11 4 -17z m-1311 -97 c-2 -6 3 -11 11
-11 16 0 28 -37 15 -46 -18 -11 -39 4 -32 23 3 10 3 15 -2 11 -4 -4 -14 -3
-22 3 -10 9 -11 15 -2 26 13 15 35 12 32 -6z m1177 -61 c0 -46 -16 -43 -27 5
-9 41 -9 43 8 34 12 -6 19 -21 19 -39z m-1275 30 c-3 -5 -12 -7 -20 -3 -21 7
-19 13 6 13 11 0 18 -4 14 -10z m-62 -25 c-3 -9 -8 -14 -10 -11 -3 3 -2 9 2
15 9 16 15 13 8 -4z m92 -10 c0 -27 -35 -26 -45 1 -7 18 -5 21 18 20 20 -1 27
-6 27 -21z m95 -29 c0 -8 -6 -16 -13 -19 -19 -7 -41 8 -33 22 10 16 46 14 46
-3z m1187 -216 c-1 -22 -12 -26 -23 -9 -3 6 0 15 7 20 18 12 18 12 16 -11z
m-1252 -29 c7 -12 -24 -43 -36 -36 -13 9 -11 32 4 38 19 8 25 8 32 -2z m1287
-24 c16 -34 16 -34 -8 -29 -13 2 -26 14 -30 26 -7 21 -7 21 -15 1 -7 -19 -8
-19 -8 2 -1 19 7 25 40 32 3 0 12 -14 21 -32z m-1024 -82 c-26 -30 -38 -32
-38 -6 0 18 6 21 52 30 5 0 -2 -10 -14 -24z m-48 -11 c9 -21 7 -29 -7 -39 -10
-7 -22 -11 -27 -8 -5 3 -1 10 8 15 11 6 14 17 10 34 -8 32 4 31 16 -2z m136
12 c15 -14 5 -61 -17 -85 -20 -21 -66 -23 -62 -3 2 6 -6 14 -17 17 -11 4 -20
10 -20 14 0 15 29 33 40 26 6 -4 10 -3 9 2 -3 20 2 34 11 28 6 -3 10 -2 10 3
0 12 31 10 46 -2z m-186 -86 c13 -11 19 -20 15 -20 -5 0 0 -7 11 -16 18 -15
18 -15 -3 -5 -30 15 -36 14 -29 -6 4 -11 -4 -6 -19 11 -20 22 -23 31 -14 42
14 17 12 18 39 -6z m99 -33 c1 -4 -7 -2 -18 5 -14 8 -16 14 -7 24 9 9 12 8 18
-5 4 -9 7 -19 7 -24z"/>
<path d="M757 1913 c-12 -12 -7 -30 8 -30 10 0 12 4 5 12 -5 7 -7 15 -3 18 3
4 4 7 1 7 -2 0 -8 -3 -11 -7z"/>
<path d="M910 1826 c0 -2 8 -10 18 -17 15 -13 16 -12 3 4 -13 16 -21 21 -21
13z"/>
<path d="M953 1737 c0 -8 6 -14 13 -14 7 0 10 6 7 14 -3 7 -8 13 -12 13 -4 0
-8 -6 -8 -13z"/>
<path d="M898 1724 c-12 -11 5 -41 32 -57 21 -13 31 -14 36 -6 4 8 3 9 -4 5
-7 -4 -24 5 -38 19 -22 22 -24 29 -13 36 8 5 9 9 3 9 -6 0 -13 -3 -16 -6z"/>
<path d="M835 1670 c-3 -5 -1 -10 4 -10 6 0 11 5 11 10 0 6 -2 10 -4 10 -3 0
-8 -4 -11 -10z"/>
<path d="M922 1570 c0 -14 2 -19 5 -12 2 6 2 18 0 25 -3 6 -5 1 -5 -13z"/>
<path d="M957 1359 c-3 -10 -1 -17 3 -14 5 3 10 2 13 -2 2 -5 2 -3 1 4 -2 6 2
13 9 16 6 2 5 6 -5 9 -11 5 -18 0 -21 -13z"/>
<path d="M876 1346 c-6 -25 -36 -37 -36 -15 0 5 -5 7 -10 4 -6 -4 -8 -10 -5
-14 2 -5 0 -23 -5 -42 -6 -21 -6 -37 0 -43 6 -6 10 -15 10 -20 0 -6 -5 -4 -10
4 -8 12 -10 12 -10 1 0 -11 -3 -11 -15 -1 -17 14 -21 35 -5 25 6 -3 10 -2 10
4 0 21 -21 21 -29 -1 -7 -18 -5 -25 10 -30 11 -4 19 -11 19 -16 0 -11 58 -3
66 9 3 5 0 9 -5 9 -6 0 -11 8 -11 18 0 10 -6 24 -12 31 -11 11 -10 12 1 6 11
-6 13 -3 8 14 -4 17 -2 21 12 16 21 -6 48 42 33 57 -6 6 -12 -1 -16 -16z"/>
<path d="M894 1304 c-4 -15 -12 -23 -19 -20 -16 6 -28 -21 -13 -30 5 -4 13 -2
17 3 3 5 15 9 26 8 12 0 21 8 23 20 3 16 1 17 -7 5 -10 -13 -11 -13 -12 0 -1
8 -1 21 0 28 3 22 -9 12 -15 -14z"/>
<path d="M1086 1241 c-3 -5 1 -14 8 -20 12 -10 13 -8 9 8 -6 23 -9 25 -17 12z"/>
<path d="M766 1197 c3 -10 9 -15 12 -12 3 3 0 11 -7 18 -10 9 -11 8 -5 -6z"/>
<path d="M814 1172 c3 -5 0 -13 -6 -15 -9 -4 -10 -6 -1 -6 17 -1 25 16 12 25
-7 4 -9 3 -5 -4z"/>
<path d="M842 1172 c1 -4 -2 -15 -7 -25 -4 -10 -4 -21 0 -25 7 -7 18 11 15 24
-1 4 4 10 10 14 8 5 7 9 -4 13 -9 4 -15 3 -14 -1z"/>
<path d="M1084 1166 c-3 -8 -4 -23 -2 -33 3 -11 6 -6 9 15 6 34 2 42 -7 18z"/>
<path d="M940 1150 c0 -5 7 -10 16 -10 8 0 12 5 9 10 -3 6 -10 10 -16 10 -5 0
-9 -4 -9 -10z"/>
<path d="M780 1120 c-11 -7 -11 -10 -2 -10 7 0 11 -4 7 -9 -3 -5 -1 -12 5 -16
6 -4 10 5 10 19 0 29 0 29 -20 16z"/>
<path d="M857 1123 c-11 -10 -8 -35 3 -28 6 3 10 -1 10 -9 0 -9 -5 -16 -11
-16 -5 0 3 -11 18 -25 22 -20 24 -24 8 -19 -17 4 -16 3 3 -8 12 -8 19 -17 16
-21 -4 -4 5 -7 20 -7 16 0 25 4 21 10 -4 6 -11 8 -16 5 -11 -7 -29 36 -21 49
3 5 0 6 -6 2 -7 -4 -12 -1 -12 7 0 21 -26 68 -33 60z"/>
<path d="M898 1095 c5 -29 8 -31 15 -11 3 8 0 19 -7 25 -10 9 -12 6 -8 -14z"/>
<path d="M827 1089 c4 -13 8 -18 11 -10 2 7 -1 18 -6 23 -8 8 -9 4 -5 -13z"/>
<path d="M981 1064 c0 -11 3 -14 6 -6 3 7 2 16 -1 19 -3 4 -6 -2 -5 -13z"/>
<path d="M955 1060 c3 -5 8 -10 11 -10 2 0 4 5 4 10 0 6 -5 10 -11 10 -5 0 -7
-4 -4 -10z"/>
<path d="M925 1039 c-4 -6 -4 -13 -1 -16 3 -4 6 -1 6 6 0 7 5 9 12 5 7 -4 8
-3 4 4 -9 15 -13 15 -21 1z"/>
<path d="M977 1033 c-10 -9 -8 -43 2 -43 5 0 11 11 13 25 5 24 -2 32 -15 18z"/>
<path d="M1239 1306 c26 -28 31 -31 31 -17 0 5 -12 17 -27 26 l-28 18 24 -27z"/>
<path d="M460 1260 c0 -5 5 -10 11 -10 5 0 7 5 4 10 -3 6 -8 10 -11 10 -2 0
-4 -4 -4 -10z"/>
<path d="M323 1236 c-18 -10 -20 -15 -10 -26 7 -7 7 -10 1 -7 -7 4 -9 -2 -6
-18 2 -14 8 -22 12 -20 5 3 11 1 15 -5 3 -5 15 -10 26 -10 10 0 19 -4 19 -9 0
-5 9 -7 20 -4 25 7 26 -15 4 -58 -8 -17 -13 -33 -11 -35 2 -3 10 9 16 25 12
27 14 28 39 15 36 -18 43 -7 12 19 -14 12 -25 28 -26 35 -1 6 -2 23 -2 36 -1
13 -9 27 -18 30 -25 10 -30 -2 -8 -18 23 -17 13 -32 -12 -18 -11 6 -25 7 -35
1 -12 -6 -21 -4 -30 8 -10 12 -10 15 -1 9 13 -8 35 10 40 32 3 16 -15 16 -21
0 -4 -8 -6 -7 -6 4 -1 9 5 19 12 21 6 3 8 5 2 5 -5 0 -20 -5 -32 -12z m127
-136 c0 -5 -2 -10 -4 -10 -3 0 -8 5 -11 10 -3 6 -1 10 4 10 6 0 11 -4 11 -10z"/>
<path d="M401 1234 c0 -11 3 -14 6 -6 3 7 2 16 -1 19 -3 4 -6 -2 -5 -13z"/>
<path d="M560 1190 c-9 -6 -10 -10 -3 -10 6 0 15 5 18 10 8 12 4 12 -15 0z"/>
<path d="M500 1170 c0 -6 4 -9 9 -6 5 4 12 1 14 -4 3 -6 4 -5 3 2 -3 15 -26
23 -26 8z"/>
<path d="M457 1145 c-4 -8 -2 -17 3 -20 6 -4 10 3 10 14 0 25 -6 27 -13 6z"/>
<path d="M343 1115 c0 -8 4 -12 9 -9 5 3 6 10 3 15 -9 13 -12 11 -12 -6z"/>
<path d="M368 1093 c7 -3 16 -2 19 1 4 3 -2 6 -13 5 -11 0 -14 -3 -6 -6z"/>
<path d="M330 1050 c-13 -8 -12 -10 3 -10 9 0 17 5 17 10 0 12 -1 12 -20 0z"/>
<path d="M456 1025 c4 -8 11 -15 16 -15 6 0 5 6 -2 15 -7 8 -14 15 -16 15 -2
0 -1 -7 2 -15z"/>
<path d="M535 1030 c-3 -5 -1 -10 4 -10 6 0 11 5 11 10 0 6 -2 10 -4 10 -3 0
-8 -4 -11 -10z"/>
<path d="M320 1005 c0 -8 4 -15 10 -15 5 0 7 7 4 15 -4 8 -8 15 -10 15 -2 0
-4 -7 -4 -15z"/>
<path d="M275 1000 c-3 -5 -1 -10 4 -10 6 0 11 5 11 10 0 6 -2 10 -4 10 -3 0
-8 -4 -11 -10z"/>
<path d="M417 986 c10 -13 20 -20 21 -15 7 17 -7 39 -23 39 -14 0 -14 -3 2
-24z"/>
<path d="M457 966 c-3 -8 0 -17 8 -20 9 -3 13 2 12 15 -2 22 -13 25 -20 5z"/>
<path d="M382 958 c-15 -15 -15 -35 0 -44 7 -4 8 -3 4 4 -4 6 -2 21 4 32 12
23 10 26 -8 8z"/>
<path d="M545 940 c3 -5 8 -10 11 -10 2 0 4 5 4 10 0 6 -5 10 -11 10 -5 0 -7
-4 -4 -10z"/>
<path d="M1413 1033 c-7 -2 -12 -14 -12 -26 1 -18 2 -19 6 -4 5 18 6 18 24 1
23 -21 29 -16 18 14 -8 22 -14 25 -36 15z"/>
<path d="M1460 1016 c0 -2 7 -7 16 -10 8 -3 12 -2 9 4 -6 10 -25 14 -25 6z"/>
<path d="M617 766 c-91 -45 -137 -108 -137 -188 0 -49 19 -86 65 -127 106 -93
285 34 311 221 5 38 3 47 -19 68 -14 14 -31 26 -36 26 -6 1 -18 2 -27 3 -8 0
-13 5 -10 9 3 5 -18 10 -47 10 -37 1 -66 -5 -100 -22z m185 -85 c12 -14 11
-15 -5 -2 -16 13 -20 13 -28 0 -5 -8 -9 -18 -9 -24 0 -5 5 -3 10 5 5 8 10 11
10 7 0 -4 -7 -18 -16 -31 -12 -19 -12 -26 -2 -32 8 -5 0 -14 -27 -26 -22 -9
-34 -18 -27 -18 20 0 14 -17 -9 -23 -17 -5 -20 -2 -16 14 3 10 1 17 -4 14 -16
-10 0 78 18 98 10 11 12 17 6 13 -7 -4 -13 -2 -13 3 0 11 19 16 53 13 10 -1
16 2 13 7 -10 16 33 0 46 -18z"/>
<path d="M171 744 c0 -11 3 -14 6 -6 3 7 2 16 -1 19 -3 4 -6 -2 -5 -13z"/>
<path d="M206 2662 c-2 -4 -7 -25 -11 -46 -6 -28 -5 -37 4 -32 7 5 9 1 5 -8
-7 -19 34 -89 47 -80 5 3 6 10 3 16 -5 7 -2 8 5 4 7 -5 10 -14 7 -22 -13 -34
99 -47 160 -18 60 29 96 104 80 168 -6 24 -11 26 -59 26 -29 0 -59 -6 -66 -12
-11 -10 -12 -10 -7 -1 5 9 -1 12 -18 11 -29 -3 -36 -33 -13 -58 10 -12 9 -12
-5 -1 -10 7 -18 24 -18 37 0 21 -5 24 -36 24 -24 0 -33 -4 -28 -12 5 -7 3 -8
-7 -2 -18 11 -38 14 -43 6z m49 -41 c3 -5 2 -12 -3 -15 -5 -3 -9 1 -9 9 0 17
3 19 12 6z m125 -31 c0 -5 -2 -10 -4 -10 -3 0 -8 5 -11 10 -3 6 -1 10 4 10 6
0 11 -4 11 -10z m-49 -83 c-10 -9 -11 -8 -5 6 3 10 9 15 12 12 3 -3 0 -11 -7
-18z"/>
<path d="M530 2647 c0 -32 45 -64 66 -47 7 7 11 16 8 21 -3 5 -1 9 5 9 18 0
49 -40 53 -69 4 -26 3 -26 -47 -25 -29 1 -61 5 -72 8 -16 5 -23 0 -33 -24 -7
-17 -24 -39 -37 -50 -20 -16 -22 -22 -14 -39 9 -16 7 -23 -10 -35 -23 -16 -31
-61 -15 -83 13 -19 26 -16 26 7 0 11 5 20 11 20 7 0 9 -9 5 -23 -4 -17 1 -30
19 -47 14 -13 25 -29 25 -36 0 -8 13 -27 30 -44 16 -16 27 -36 24 -44 -7 -17
42 -49 65 -41 13 4 17 12 13 30 -2 14 -9 28 -14 31 -5 3 -4 12 3 20 14 17 -4
44 -31 44 -9 0 -30 18 -45 40 -15 22 -33 40 -40 40 -7 0 -19 21 -27 48 -13 39
-13 48 -2 55 7 4 10 15 7 24 -4 11 -2 14 8 11 8 -2 16 -15 17 -29 2 -14 20
-36 45 -54 23 -17 44 -41 47 -53 3 -13 9 -22 15 -20 13 4 7 29 -11 49 -12 14
-11 15 16 11 29 -4 30 -3 30 32 0 20 7 48 16 61 9 14 14 36 11 51 l-4 25 21
-20 c24 -23 42 -28 30 -9 -4 6 1 17 10 24 13 9 15 17 8 31 -6 10 -9 42 -7 71
l4 52 -31 0 c-17 0 -40 -8 -51 -17 -16 -16 -20 -16 -30 -3 -7 9 -33 16 -64 18
-51 4 -53 3 -53 -21z m140 -144 c0 -8 -4 -12 -9 -9 -11 7 -19 -12 -16 -42 1
-13 -2 -19 -7 -14 -14 14 1 79 18 79 8 0 14 -7 14 -14z m-100 -103 c0 -5 -2
-10 -4 -10 -3 0 -8 5 -11 10 -3 6 -1 10 4 10 6 0 11 -4 11 -10z"/>
<path d="M1690 2659 c0 -5 5 -7 10 -4 6 3 10 8 10 11 0 2 -4 4 -10 4 -5 0 -10
-5 -10 -11z"/>
<path d="M1525 2550 c-4 -6 6 -10 22 -10 22 0 25 2 13 10 -19 12 -27 12 -35 0z"/>
<path d="M1588 2543 c7 -3 16 -2 19 1 4 3 -2 6 -13 5 -11 0 -14 -3 -6 -6z"/>
<path d="M1146 2483 c-10 -10 -16 -12 -12 -5 11 19 -39 15 -85 -8 -22 -12 -42
-27 -46 -35 -3 -8 -11 -15 -18 -15 -23 0 -46 -37 -70 -115 -25 -78 -31 -126
-18 -139 4 -4 6 -22 5 -39 -3 -37 47 -117 73 -117 8 0 15 -8 15 -18 0 -29 35
-59 88 -76 48 -16 102 -14 102 4 0 10 47 7 57 -3 3 -4 23 -7 44 -7 47 0 101
45 92 79 -4 15 -1 21 10 21 19 0 65 54 73 86 3 13 1 30 -4 37 -8 9 -6 16 9 25
12 8 19 23 19 43 0 16 -4 28 -8 25 -5 -3 -6 8 -4 25 2 17 -3 39 -12 54 -19 28
-42 34 -32 8 4 -10 4 -14 0 -10 -4 4 -12 3 -18 -3 -8 -6 -12 -3 -12 10 0 10 4
16 8 14 14 -9 21 46 8 61 -11 13 -14 13 -27 -2 -13 -16 -13 -15 -2 6 10 21 9
27 -11 43 -12 10 -31 18 -42 18 -10 0 -31 9 -46 20 -40 29 -112 36 -136 13z
m94 -48 c0 -5 -5 -3 -10 5 -5 8 -10 20 -10 25 0 6 5 3 10 -5 5 -8 10 -19 10
-25z m-50 12 c0 -7 -7 -22 -15 -33 -14 -18 -14 -18 -15 4 0 13 4 20 10 17 6
-3 10 1 10 9 0 9 2 16 5 16 3 0 5 -6 5 -13z m23 -7 c3 -11 1 -18 -4 -14 -5 3
-9 12 -9 20 0 20 7 17 13 -6z m97 -14 c0 -2 -7 -7 -16 -10 -8 -3 -12 -2 -9 4
6 10 25 14 25 6z m-163 -28 c-3 -8 -6 -5 -6 6 -1 11 2 17 5 13 3 -3 4 -12 1
-19z m186 -25 c-6 -16 -5 -16 10 -4 15 12 17 12 11 -3 -3 -9 -10 -16 -14 -16
-13 0 -22 19 -15 30 10 16 15 11 8 -7z m-176 -75 c-3 -7 -5 -2 -5 12 0 14 2
19 5 13 2 -7 2 -19 0 -25z m143 28 c0 -2 -7 -6 -15 -10 -8 -3 -15 -1 -15 4 0
6 7 10 15 10 8 0 15 -2 15 -4z m-84 -52 c-3 -8 -10 -13 -15 -10 -5 4 -11 0
-13 -6 -3 -7 -13 -13 -24 -13 -12 0 -20 -8 -22 -22 -6 -42 -27 -25 -27 21 0
28 4 42 10 37 29 -22 83 -2 86 31 1 7 3 5 6 -5 3 -10 2 -25 -1 -33z m-221 -24
c3 -5 -1 -10 -10 -10 -9 0 -13 5 -10 10 3 6 8 10 10 10 2 0 7 -4 10 -10z m240
-33 c0 -18 -6 -38 -13 -46 -8 -8 -11 -24 -8 -37 8 -30 -2 -31 -14 -1 -9 22 -9
22 -9 1 -1 -12 -8 -28 -18 -35 -15 -13 -15 -12 -4 10 7 12 10 32 8 43 -7 26 2
48 19 48 8 0 14 7 14 15 0 8 5 15 11 15 6 0 8 7 5 17 -4 10 -3 14 1 9 4 -4 8
-22 8 -39z m25 -7 c0 -5 -5 -10 -11 -10 -5 0 -7 5 -4 10 3 6 8 10 11 10 2 0 4
-4 4 -10z m145 -20 c3 -5 1 -10 -4 -10 -6 0 -11 5 -11 10 0 6 2 10 4 10 3 0 8
-4 11 -10z m-244 -36 c4 -12 3 -27 -3 -35 -8 -11 -9 -11 -5 2 3 9 -2 27 -10
39 -12 16 -12 21 -3 18 7 -2 16 -13 21 -24z m-100 -37 c-10 -9 -11 -8 -5 6 3
10 9 15 12 12 3 -3 0 -11 -7 -18z m26 1 c-3 -8 -6 -5 -6 6 -1 11 2 17 5 13 3
-3 4 -12 1 -19z m316 -28 c-7 -28 -13 -25 -13 6 0 14 4 23 9 20 5 -3 7 -15 4
-26z m-277 -8 c10 -6 27 -42 20 -42 -1 0 -12 11 -24 25 -21 24 -19 33 4 17z
m109 -69 c-4 -16 -8 -34 -8 -41 0 -7 -4 -9 -9 -4 -4 4 -2 22 4 40 15 39 23 42
13 5z m-115 5 c0 -4 -7 -8 -15 -8 -9 0 -15 -9 -15 -22 0 -12 -3 -19 -6 -15
-11 11 5 54 21 54 8 0 15 -4 15 -9z m31 -60 c11 -21 11 -22 -4 -9 -10 7 -17
17 -17 22 0 15 9 10 21 -13z"/>
<path d="M1640 2480 c14 -4 32 -8 40 -9 13 -1 13 0 0 9 -8 5 -26 9 -40 9 l-25
-1 25 -8z"/>
<path d="M1691 2284 c0 -11 3 -14 6 -6 3 7 2 16 -1 19 -3 4 -6 -2 -5 -13z"/>
<path d="M620 2255 c7 -9 15 -13 17 -11 7 7 -7 26 -19 26 -6 0 -6 -6 2 -15z"/>
<path d="M1636 2078 c5 -8 2 -9 -10 -5 -29 11 -111 -45 -211 -144 -84 -82 -98
-99 -88 -99 4 0 2 -4 -4 -8 -9 -6 -2 -19 27 -47 35 -34 40 -36 46 -19 25 78
35 94 61 94 8 0 1 -22 -18 -60 -25 -50 -29 -69 -27 -117 l4 -58 37 -3 38 -3
-5 -45 c-3 -30 -15 -58 -36 -84 -35 -44 -50 -50 -50 -21 0 11 -3 26 -6 35 -10
27 -32 -6 -27 -41 5 -30 2 -33 -48 -57 -59 -27 -48 -34 16 -11 50 18 55 18 55
0 0 -11 -11 -15 -43 -15 -24 0 -47 -3 -50 -6 -3 -4 32 -32 79 -63 75 -50 91
-56 123 -51 l36 5 -42 3 c-30 2 -46 9 -53 23 -8 14 -7 19 2 19 7 1 0 8 -15 16
-16 9 -39 13 -52 10 -13 -3 -26 -2 -29 2 -2 4 12 9 32 10 20 2 70 21 111 43
40 22 76 38 78 35 8 -8 -8 -47 -17 -41 -5 3 -12 0 -16 -6 -4 -8 -3 -9 4 -5 8
5 12 -1 12 -14 0 -17 -4 -20 -20 -15 -11 3 -27 2 -35 -2 -11 -7 -5 -9 20 -10
26 -1 38 4 42 15 3 10 15 25 27 34 13 11 16 18 8 18 -7 0 -10 5 -7 10 4 6 10
8 15 5 5 -3 27 -1 49 5 28 7 46 20 60 44 23 36 27 51 12 41 -5 -3 -13 0 -17 6
-5 8 -3 9 6 4 10 -6 12 -3 8 13 -4 12 -2 22 2 22 5 0 11 -8 13 -17 3 -10 4 -1
3 19 0 21 -4 38 -8 38 -5 0 -8 7 -8 15 0 9 -11 21 -25 27 -16 7 -21 14 -15 18
7 4 -1 17 -21 35 -27 22 -39 26 -68 21 -19 -3 -38 -11 -42 -18 -5 -7 -16 -13
-26 -13 -11 0 -19 -9 -21 -22 -2 -15 -10 -23 -23 -23 -17 0 -15 6 18 45 37 44
46 48 111 48 22 0 29 3 20 8 -7 5 -20 9 -29 9 -12 0 -15 7 -11 26 3 19 0 26
-16 31 -21 5 -50 63 -31 63 5 0 9 5 9 11 0 6 -7 9 -15 5 -8 -3 -14 0 -12 7 2
13 -1 13 -48 4 l-30 -6 33 14 c38 18 41 24 8 18 -13 -3 -27 0 -31 6 -7 13 13
44 24 37 11 -7 42 21 39 35 -2 7 2 13 7 14 17 1 36 16 30 25 -3 4 10 17 28 28
l34 19 0 -28 c0 -17 10 -40 23 -54 16 -17 19 -25 9 -25 -12 0 -11 -2 1 -11 12
-8 10 -9 -8 -4 -22 6 -72 -16 -72 -33 0 -4 14 -15 31 -24 l30 -18 -18 -31 -18
-30 33 -30 c31 -28 72 -39 72 -19 0 6 -4 10 -8 10 -5 0 -14 12 -21 28 -7 15
-9 24 -5 20 4 -4 13 -3 19 2 9 7 16 6 25 -5 19 -23 25 -18 26 25 1 39 0 40
-20 23 -20 -18 -20 -18 -2 12 10 17 24 35 32 41 7 5 11 22 10 37 -3 28 -16 51
-16 29 0 -18 -42 5 -65 36 -15 21 -15 24 -2 13 21 -17 22 -8 2 12 -13 14 -10
17 28 30 23 9 34 16 24 16 -10 1 -28 -4 -39 -10 -14 -8 -23 -8 -31 0 -15 15
-30 14 -21 -1z m34 -158 c0 -5 -4 -10 -10 -10 -5 0 -10 5 -10 10 0 6 5 10 10
10 6 0 10 -4 10 -10z m-183 -164 c6 -37 -7 -75 -35 -105 -34 -35 -37 51 -6
128 17 41 32 32 41 -23z m93 3 c0 -5 -4 -9 -10 -9 -5 0 -10 7 -10 16 0 8 5 12
10 9 6 -3 10 -10 10 -16z m1 -116 c12 -16 12 -17 -2 -6 -9 7 -20 9 -24 5 -5
-4 -5 -1 -1 6 9 16 11 15 27 -5z m-14 -60 c-3 -10 -5 -2 -5 17 0 19 2 27 5 18
2 -10 2 -26 0 -35z m57 5 c28 -40 20 -87 -20 -125 -33 -30 -64 -43 -64 -27 0
3 10 19 21 36 13 18 23 49 24 76 2 26 4 50 4 55 2 14 20 7 35 -15z m-83 -112
c-12 -12 -21 -26 -21 -30 0 -15 -29 -36 -35 -26 -3 5 -21 -5 -39 -24 l-34 -33
-11 24 c-15 33 -14 36 11 30 15 -4 33 2 54 18 17 13 34 21 38 18 3 -4 6 5 6
19 0 31 6 37 31 31 20 -6 20 -6 0 -27z m159 -10 c0 -16 -34 -40 -67 -48 -16
-4 -23 -2 -23 8 0 8 6 14 13 14 8 0 24 11 37 25 23 25 40 25 40 1z m-313 -8
c-3 -8 -6 -5 -6 6 -1 11 2 17 5 13 3 -3 4 -12 1 -19z"/>
<path d="M1767 2053 c-27 -26 20 -126 57 -121 16 2 22 11 24 38 2 28 0 32 -9
20 -9 -12 -10 -11 -6 8 5 21 -7 28 -38 22 -5 -1 -1 8 9 19 19 21 19 21 -6 21
-13 0 -28 -3 -31 -7z"/>
<path d="M1573 1999 c-18 -16 -33 -33 -33 -36 0 -4 16 8 35 27 32 31 39 40 33
40 -2 0 -18 -14 -35 -31z"/>
<path d="M1516 1934 c-5 -14 -4 -15 9 -4 17 14 19 20 6 20 -5 0 -12 -7 -15
-16z"/>
<path d="M1760 1720 c0 -6 -5 -8 -12 -4 -8 5 -9 -3 -5 -31 8 -51 33 -85 61
-85 33 0 37 9 15 33 -16 18 -24 44 -20 69 0 4 -8 12 -19 18 -14 8 -20 8 -20 0z"/>
<path d="M1650 1706 c0 -2 8 -10 18 -17 15 -13 16 -12 3 4 -13 16 -21 21 -21
13z"/>
<path d="M1234 1636 c-23 -17 -13 -42 20 -48 14 -3 23 -1 20 3 -8 14 18 10 49
-5 15 -8 27 -11 27 -7 0 5 -13 14 -30 21 -16 7 -30 15 -30 19 0 3 -9 12 -19
18 -15 9 -23 9 -37 -1z"/>
<path d="M1700 1411 c0 -2 7 -12 16 -22 15 -17 18 -17 40 -2 34 22 30 29 -16
29 -22 0 -40 -2 -40 -5z"/>
<path d="M1206 1372 c-2 -4 4 -9 15 -9 10 -1 19 2 19 8 0 11 -27 12 -34 1z"/>
<path d="M1473 1360 c-13 -5 -23 -11 -23 -14 0 -6 20 -1 50 12 30 13 5 15 -27
2z"/>
<path d="M1625 1360 c3 -5 -2 -10 -11 -10 -16 0 -16 -1 2 -15 10 -8 28 -15 38
-15 19 0 19 0 1 13 -10 8 -15 19 -11 25 4 7 1 12 -9 12 -9 0 -13 -4 -10 -10z"/>
<path d="M1723 1308 c0 -7 -4 -21 -8 -30 -5 -13 -2 -18 9 -18 17 0 23 -19 6
-21 -5 -1 -15 -2 -21 -3 -15 -1 -35 -33 -27 -41 3 -3 17 4 30 17 13 13 32 28
42 33 20 11 12 49 -9 41 -8 -3 -11 2 -8 15 3 10 1 19 -4 19 -5 0 -10 -6 -10
-12z"/>
<path d="M1570 1205 c0 -10 7 -15 18 -13 21 4 19 22 -2 26 -10 2 -16 -3 -16
-13z"/>
<path d="M1693 1168 c-35 -12 -42 -25 -18 -34 17 -7 65 21 65 36 0 12 -4 11
-47 -2z"/>
<path d="M1741 1131 c-13 -10 -22 -23 -20 -28 2 -5 14 3 27 19 27 33 26 34 -7
9z"/>
<path d="M1784 967 c-7 -20 3 -37 22 -37 18 0 18 24 -1 40 -12 10 -16 9 -21
-3z"/>
<path d="M1385 850 c3 -5 8 -10 11 -10 2 0 4 5 4 10 0 6 -5 10 -11 10 -5 0 -7
-4 -4 -10z"/>
<path d="M1435 820 c10 -11 20 -20 22 -20 2 0 -2 9 -9 20 -7 11 -17 20 -22 20
-5 0 -1 -9 9 -20z"/>
<path d="M1480 775 c0 -8 4 -15 10 -15 5 0 7 7 4 15 -4 8 -8 15 -10 15 -2 0
-4 -7 -4 -15z"/>
<path d="M1168 733 c-3 -53 -4 -58 -11 -71 -5 -6 -5 -17 -1 -23 5 -8 1 -8 -14
0 -12 6 -25 17 -29 25 -7 11 -16 11 -58 -2 -27 -8 -44 -17 -37 -19 7 -3 18
-16 23 -30 5 -14 12 -23 15 -20 3 3 1 14 -5 24 -8 15 -7 20 4 20 8 0 12 -4 9
-9 -3 -4 4 -8 14 -8 11 0 23 -7 26 -16 6 -15 4 -15 -10 -3 -16 13 -16 12 -5
-9 7 -12 17 -20 23 -16 7 5 9 0 6 -14 -4 -14 -2 -20 4 -16 6 4 8 1 6 -7 -3 -8
-1 -24 3 -37 5 -13 5 -21 0 -18 -5 3 -11 0 -14 -8 -7 -19 3 -57 13 -51 5 3 12
-4 15 -16 6 -16 9 -18 15 -8 5 7 6 17 4 21 -3 4 0 8 5 8 6 0 11 -5 11 -11 0
-22 33 16 52 59 17 37 18 48 7 80 -6 20 -18 44 -25 53 -8 9 -13 27 -12 40 1
25 -19 109 -27 109 -3 0 -6 -12 -7 -27z m37 -154 c-3 -4 -1 -10 5 -14 14 -9
13 -72 -2 -81 -7 -4 -8 -3 -4 4 8 14 -17 71 -44 100 -18 19 -18 21 -2 25 19 4
54 -21 47 -34z m5 -118 c0 -6 -4 -12 -8 -15 -5 -3 -9 1 -9 9 0 8 4 15 9 15 4
0 8 -4 8 -9z"/>
<path d="M1464 740 c4 -14 8 -32 10 -40 1 -8 5 -22 8 -30 22 -60 25 -87 9 -98
-14 -10 -14 -11 2 -5 17 5 18 4 3 -31 -8 -20 -10 -34 -5 -30 7 4 10 -3 7 -22
-3 -16 -3 -24 -1 -18 3 8 16 9 41 3 54 -12 102 13 102 53 0 16 -4 27 -9 24 -4
-3 -17 4 -27 16 -19 21 -19 21 3 16 18 -5 13 5 -27 56 -27 33 -65 77 -86 96
-35 33 -36 34 -30 10z"/>
<path d="M1312 605 c-7 -14 -12 -34 -12 -43 1 -9 7 1 15 23 16 45 14 58 -3 20z"/>
<path d="M986 581 c15 -29 34 -34 34 -8 0 7 -4 6 -10 -3 -8 -13 -10 -13 -10 1
0 9 -7 22 -15 29 -12 10 -12 7 1 -19z"/>
<path d="M951 554 c0 -11 3 -14 6 -6 3 7 2 16 -1 19 -3 4 -6 -2 -5 -13z"/>
<path d="M1301 510 c2 -36 16 -63 32 -66 14 -2 16 2 11 19 -8 29 -44 68 -43
47z"/>
<path d="M1695 436 c-19 -14 -19 -15 9 -26 23 -8 31 -8 38 2 19 31 -14 48 -47
24z"/>
<path d="M1500 376 c0 -32 56 -55 78 -32 13 12 9 17 -26 35 -51 26 -52 26 -52
-3z"/>
<path d="M1774 385 c-3 -8 -3 -19 1 -25 9 -14 35 6 35 26 0 19 -29 18 -36 -1z"/>
<path d="M1663 361 c-3 -12 -15 -21 -32 -23 -19 -2 -27 -9 -29 -28 -2 -20 6
-32 42 -57 l44 -31 -16 29 c-10 16 -21 29 -25 29 -5 0 -5 5 -1 11 5 8 9 8 14
-1 4 -6 30 -14 59 -17 42 -4 51 -2 51 11 0 9 6 16 13 16 8 0 8 3 -2 9 -9 6
-22 6 -33 0 -12 -7 -18 -6 -18 2 0 6 -7 9 -15 5 -8 -3 -15 -1 -15 4 0 5 -7 7
-15 4 -23 -9 -18 9 6 25 18 10 19 15 8 22 -21 13 -30 11 -36 -10z"/>
<path d="M1610 360 c0 -5 5 -10 11 -10 5 0 7 5 4 10 -3 6 -8 10 -11 10 -2 0
-4 -4 -4 -10z"/>
<path d="M1150 334 c-33 -12 -27 -18 17 -17 7 1 11 -3 8 -7 -9 -14 23 -19 35
-5 8 10 7 17 -5 29 -9 9 -17 15 -18 15 -1 -1 -18 -7 -37 -15z"/>
<path d="M976 285 c-21 -7 -42 -19 -46 -25 -4 -7 -11 -12 -16 -12 -5 0 -8 -4
-7 -9 2 -4 -3 -6 -11 -3 -14 5 -56 -44 -60 -71 -1 -9 -8 -21 -14 -27 -15 -15
-16 -41 0 -32 7 4 8 3 4 -5 -4 -6 -12 -9 -17 -6 -5 4 -9 -8 -9 -24 0 -17 5
-31 11 -31 5 0 7 5 3 12 -5 7 -3 8 6 3 10 -6 10 -11 -3 -20 -38 -28 -18 -34
108 -33 116 1 125 2 125 20 0 12 -4 16 -12 12 -7 -4 -8 -3 -4 4 4 7 1 12 -9
12 -12 0 -15 -6 -10 -22 5 -21 5 -21 -5 -5 -7 10 -9 21 -6 24 3 3 -2 12 -12
20 -9 8 -11 12 -4 8 7 -3 12 0 12 9 0 8 -7 13 -17 11 -10 -1 -17 -8 -16 -13 2
-7 -4 -9 -13 -5 -15 5 -15 7 0 15 22 12 20 35 -3 47 -15 8 -20 7 -25 -5 -3 -8
-10 -12 -16 -9 -6 3 -14 -4 -19 -17 -7 -17 -10 -19 -10 -5 -1 18 -21 25 -21 6
0 -5 -5 -7 -10 -4 -6 4 -7 12 -3 18 4 7 6 19 5 28 -2 9 4 19 11 22 11 4 13 0
10 -14 -3 -10 -1 -19 3 -20 5 0 17 -2 27 -4 15 -3 22 6 18 28 -1 4 11 0 26
-10 26 -17 27 -17 20 0 -8 21 15 23 33 2 10 -12 9 -16 -4 -21 -21 -8 -21 -23
1 -20 11 2 18 14 21 37 2 19 0 31 -4 26 -4 -4 -15 3 -23 15 -19 27 -46 37 -38
14 4 -9 2 -18 -2 -20 -5 -3 -8 4 -7 16 1 29 30 31 55 2 11 -13 27 -24 35 -24
8 0 18 -5 21 -10 4 -6 1 -9 -7 -8 -8 2 -14 -9 -16 -30 -2 -18 -8 -30 -13 -27
-5 4 -9 -5 -9 -19 0 -25 1 -25 19 -9 11 9 17 21 14 27 -4 6 1 4 11 -3 17 -14
17 -15 -4 -23 -18 -7 -20 -11 -10 -23 7 -8 17 -15 22 -15 6 0 5 7 -2 15 -12
14 -4 20 17 13 11 -4 3 -31 -10 -41 -8 -6 -5 -7 6 -3 10 3 17 0 17 -8 0 -19
29 -15 36 6 3 10 10 18 15 18 6 0 7 -9 4 -20 -6 -19 -2 -20 69 -20 73 0 76 1
82 25 10 39 -4 105 -32 152 -58 99 -182 146 -288 108z m57 -32 c-7 -2 -19 -2
-25 0 -7 3 -2 5 12 5 14 0 19 -2 13 -5z m47 -3 c0 -5 -5 -10 -11 -10 -5 0 -7
5 -4 10 3 6 8 10 11 10 2 0 4 -4 4 -10z m34 -15 c17 -25 16 -25 -4 -13 -11 7
-20 18 -20 25 0 19 6 16 24 -12z m-184 -45 c0 -5 -2 -10 -4 -10 -3 0 -8 5 -11
10 -3 6 -1 10 4 10 6 0 11 -4 11 -10z m186 -75 c-3 -10 1 -15 12 -15 15 -1 15
-2 -1 -11 -10 -6 -21 -9 -24 -6 -6 6 6 47 14 47 3 0 3 -7 -1 -15z m-192 -21
c3 -8 2 -12 -4 -9 -6 3 -10 10 -10 16 0 14 7 11 14 -7z m-8 -26 c4 -6 2 -14
-5 -16 -11 -4 -11 -6 0 -13 8 -5 9 -9 3 -9 -5 0 -19 7 -30 15 -18 13 -18 14
-1 15 10 0 15 5 12 10 -3 6 -2 10 4 10 5 0 13 -5 17 -12z m-36 -43 c0 -8 -4
-15 -10 -15 -5 0 -10 7 -10 15 0 8 5 15 10 15 6 0 10 -7 10 -15z"/>
<path d="M1779 269 c-6 -12 -5 -20 1 -24 6 -4 9 -2 8 4 -2 5 5 16 16 24 16 12
17 14 2 14 -9 0 -21 -8 -27 -18z"/>
<path d="M1700 225 c0 -40 2 -41 24 -19 12 12 13 20 6 35 -16 30 -30 23 -30
-16z"/>
<path d="M1473 230 c-29 -14 -40 -25 -37 -35 3 -8 9 -14 12 -13 22 2 42 -3 38
-11 -8 -13 -47 -1 -53 15 -8 22 -20 16 -42 -22 -27 -45 -27 -111 -2 -141 18
-22 27 -23 140 -23 110 0 140 7 111 25 -12 7 -4 25 11 25 6 0 7 -4 4 -10 -3
-5 -2 -10 4 -10 6 0 8 -8 5 -18 -5 -15 -3 -14 10 2 38 47 27 142 -21 190 -32
32 -70 55 -58 35 6 -8 4 -10 -6 -4 -26 17 -74 14 -116 -5z m137 -30 c6 -11 7
-20 3 -20 -5 0 -14 9 -21 20 -7 11 -8 20 -2 20 5 0 14 -9 20 -20z m-219 -83
c-10 -9 -11 -8 -5 6 3 10 9 15 12 12 3 -3 0 -11 -7 -18z m205 -65 c-18 -16
-18 -16 -6 6 6 13 14 21 18 18 3 -4 -2 -14 -12 -24z m-189 -4 c-3 -8 -6 -5 -6
6 -1 11 2 17 5 13 3 -3 4 -12 1 -19z"/>
<path d="M1791 174 c0 -11 3 -14 6 -6 3 7 2 16 -1 19 -3 4 -6 -2 -5 -13z"/>
<path d="M1727 153 c-11 -10 6 -33 24 -33 10 0 19 3 19 8 0 10 -37 32 -43 25z"/>
<path d="M484 95 c24 -18 39 -20 34 -2 -3 6 -15 13 -29 15 -23 2 -23 2 -5 -13z"/>
<path d="M1830 65 c-7 -8 -9 -15 -6 -15 4 0 14 7 22 15 9 8 11 15 6 15 -5 0
-15 -7 -22 -15z"/>
<path d="M21 14 c0 -11 3 -14 6 -6 3 7 2 16 -1 19 -3 4 -6 -2 -5 -13z"/>
<path d="M40 15 c0 -8 5 -15 10 -15 6 0 10 7 10 15 0 8 -4 15 -10 15 -5 0 -10
-7 -10 -15z"/>
<path d="M540 15 c0 -9 6 -12 15 -9 8 4 15 7 15 9 0 2 -7 5 -15 9 -9 3 -15 0
-15 -9z"/>
</g>
</svg>
